<svg xmlns="http://www.w3.org/2000/svg" xmlns:xlink="http://www.w3.org/1999/xlink" version="1.1" id="Ebene_1" x="0px" y="0px" viewBox="0 329.2 270.8 270.8" enable-background="new 0 329.2 270.8 270.8" xml:space="preserve"><script xmlns="" id="argent-x-extension" data-extension-id="dlcobpjiigpikoobohmabehhmhfoodbb"/>
<g>
	<g>
		<g>
			<g>
				<g>
					<defs>
						<rect id="SVGID_3_" y="329.2" width="270.8" height="270.8"/>
					</defs>
					<clipPath id="SVGID_4_">
						<use xlink:href="#SVGID_3_" overflow="visible"/>
					</clipPath>
					<path clip-path="url(#SVGID_4_)" fill="#000E17" d="M85.8,382.3c-36.5,24-63.3,66-45.8,107.9c9.4,20.2,26.9,36.5,48.5,44.6       C48.1,540.2,17,502.5,13.1,466c-4-39.2,8.1-78.1,37.7-105.2c28.3-25.8,66-34,102.5-31.3c21.7,2.7,41.9,6.9,62.1,16.2       c5.4,2.7,13.5,6.7,10.8,13.5c-4,9.4-17.5,8.1-26.9,8.1C161.5,367.5,121,359.4,85.8,382.3"/>
				</g>
			</g>
		</g>
	</g>
	<path fill="#2289CA" d="M161.5,453.8c-2.5,12.3-9.4,21.7-17.5,31c-10.8,9.4-24.4,9.4-37.7,12.1c-6.7,0-13.5-1.2-20.2-5.4   c-13.6-10.9-12.1-26.9-13.6-41.9c-1.2-6.7,2.7-12.1,9.4-16.2c10.8-5.4,20.2-10.8,31-14.8c16.2-6.7,39.2,1.2,49.8,16.2   C166.9,440.2,162.7,446.9,161.5,453.8"/>
	<g>
		<g>
			<g>
				<g>
					<defs>
						<rect id="SVGID_5_" y="329.2" width="270.8" height="270.8"/>
					</defs>
					<clipPath id="SVGID_6_">
						<use xlink:href="#SVGID_5_" overflow="visible"/>
					</clipPath>
					<path clip-path="url(#SVGID_6_)" fill="#E3000B" d="M255.8,482.1c-9,28.5-33.7,44.6-59.4,55.2c-28.3,12.1-59.4,20.2-89,12.1       c-4-1.2-8.1-2.7-9.4-6.7c-2.7-8.1-1.2-21.7,8.1-21.7c41.9-4,93.1-20.2,102.5-66c5.4-24.2-10.8-45.8-31-55.2       c-24.2-10.8-51.2-10.8-76.9-2.7c26.9-21.7,64.6-24.4,97.1-10.8C235.6,401.1,269.4,439,255.8,482.1"/>
				</g>
			</g>
		</g>
		<g>
			<g>
				<g>
					<defs>
						<rect id="SVGID_7_" y="329.2" width="270.8" height="270.8"/>
					</defs>
					<clipPath id="SVGID_8_">
						<use xlink:href="#SVGID_7_" overflow="visible"/>
					</clipPath>
					<path clip-path="url(#SVGID_8_)" fill="#FFDE0C" d="M254.4,566.9c-52.7,31.7-117.3,39.2-179.4,25.6       c-24.2-6.7-47.3-17.5-62.1-39.2C-3.3,527.7-1.9,498.1,3.5,471c0,25.6,6.7,49.8,20.2,72.7c14.8,21.7,36.5,32.3,60.6,35       c57.9,4,111.9-21.7,161.9-47.3c12.1-6.7,25.6,6.7,21.7,19C265.2,557.5,261.3,562.9,254.4,566.9"/>
				</g>
			</g>
		</g>
	</g>
</g>
</svg>