<?xml version="1.0" encoding="utf-8"?>
<!-- Generator: Adobe Illustrator 23.1.1, SVG Export Plug-In . SVG Version: 6.00 Build 0)  -->
<svg version="1.1" id="Layer_1" xmlns="http://www.w3.org/2000/svg" xmlns:xlink="http://www.w3.org/1999/xlink" x="0px" y="0px"
	 viewBox="0 0 2600 1300" style="enable-background:new 0 0 2600 1300;" xml:space="preserve">
<style type="text/css">
	.st0{fill:#88BE40;}
</style>
<g>
	<path class="st0" d="M192.11,646.76c0-37.34,9.18-70.76,27.55-100.28c33.84-54.25,83.04-81.39,147.63-81.39
		c25.78,0,49.67,5.21,71.64,15.63c21.98,10.42,38.01,24.81,48.13,43.17v-49.51h76.74v351.9h-76.74v-48.29
		c-12.59,17.54-30.55,31.98-53.86,43.34c-22.49,10.92-44.87,16.39-67.16,16.39c-33.22,0-63.14-8.1-89.75-24.29
		c-26.62-16.2-47.35-39.15-62.21-68.87C199.43,715.47,192.11,682.87,192.11,646.76 M383.22,756.01c28.43,0,52.64-10.31,72.63-30.94
		c19.16-19.82,28.74-44.57,28.74-74.28c0-43.33-17.62-73.86-52.85-91.61c-16.47-8.25-33.47-12.38-50.99-12.38
		c-40.17,0-69.94,16.62-89.3,49.83c-9.69,16.3-14.53,34.77-14.53,55.4c0,42.72,18.54,73.24,55.62,91.61
		C348.81,751.9,365.7,756.01,383.22,756.01"/>
	<path class="st0" d="M1407.34,653.26c0,32.2-7.53,62.21-22.59,90.07c-15.27,28.48-36.41,51.12-63.44,67.93
		c-27.03,16.83-56.74,25.22-89.13,25.22c-54.47,0-93.48-19.9-117-59.73v49.53h-77.98V357.07h84.17v154.75
		c30.13-33.01,66.64-49.51,109.57-49.51c24.76,0,48.49,5.16,71.19,15.47c33.21,15.47,59.32,39.52,78.3,72.11
		C1398.37,581.05,1407.34,615.5,1407.34,653.26 M1177.29,746.73c12.99,6.18,27.71,9.28,44.19,9.28c17.93,0,35.12-5.16,51.6-15.47
		c32.97-20.63,49.45-51.38,49.45-92.22c0-39.21-17-69.13-50.99-89.76c-16.08-9.5-33.17-14.24-51.3-14.24
		c-39.56,0-69.64,18.26-90.25,54.78c-9.88,17.54-14.83,35.18-14.83,52.92c0,13.22,2.37,25.39,7.11,36.53
		C1133.21,714.95,1151.54,734.35,1177.29,746.73"/>
	<path class="st0" d="M1447.43,646.76c0-37.34,9.17-70.76,27.54-100.28c33.84-54.25,83.04-81.39,147.63-81.39
		c25.79,0,49.68,5.21,71.65,15.63c21.98,10.42,38.01,24.81,48.12,43.17v-49.51h76.76v351.9h-76.76v-48.29
		c-12.58,17.54-30.53,31.98-53.85,43.34c-22.49,10.92-44.86,16.39-67.16,16.39c-33.23,0-63.13-8.1-89.75-24.29
		c-26.62-16.2-47.35-39.15-62.21-68.87C1454.75,715.47,1447.43,682.87,1447.43,646.76 M1638.54,756.01
		c28.42,0,52.64-10.31,72.62-30.94c19.16-19.82,28.74-44.57,28.74-74.28c0-43.33-17.62-73.86-52.85-91.61
		c-16.48-8.25-33.48-12.38-50.99-12.38c-40.17,0-69.94,16.62-89.31,49.83c-9.68,16.3-14.52,34.77-14.52,55.4
		c0,42.72,18.53,73.24,55.62,91.61C1604.13,751.9,1621.01,756.01,1638.54,756.01"/>
	<path class="st0" d="M1874.6,944.18v-469.8h76.45v47.66c31.97-39.82,71.09-59.73,117.3-59.73c49.73,0,91.09,19.49,124.11,58.49
		c32.18,37.97,48.28,81.71,48.28,131.23c0,24.35-4.32,47.77-13,70.25c-8.67,22.5-20.95,42.41-36.84,59.74
		c-34.03,37.15-76.33,55.7-126.88,55.7c-44.99,0-80.07-16.71-105.23-50.12v156.59H1874.6z M1961.88,606.84
		c-6.19,13.42-9.28,28.06-9.28,43.94c0,28.48,10.11,52.93,30.33,73.36c20.84,21.26,45.28,31.88,73.35,31.88
		c17.12,0,33.94-5.05,50.44-15.16c34.07-20.63,51.08-49.41,51.08-86.35c0-40.65-17.54-71.58-52.62-92.85
		c-16.3-9.91-33.83-14.86-52.61-14.86C2010.68,546.8,1980.45,566.81,1961.88,606.84"/>
	<path class="st0" d="M985.8,652.5c-0.13-37.46-9.08-71.66-26.91-102.61c-18.98-32.59-45.09-56.64-78.3-72.11
		c-22.69-10.31-46.42-15.47-71.18-15.47c-42.92,0-79.45,16.51-109.57,49.52V357.08h-84.18v469.19h77.99v-49.52
		c0.01,0.03,0.03,0.03,0.03,0.05V652.75c0-0.25-0.03-0.48-0.03-0.73c0-17.74,4.95-35.39,14.83-52.92
		c20.61-36.53,50.69-54.79,90.24-54.79c18.13,0,35.23,4.75,51.3,14.25c34,20.63,51,50.55,51,89.74c0,1.45-0.19,2.78-0.22,4.19h0.16
		v157.92v14.14h84.86V652.5H985.8z"/>
	<path class="st0" d="M2324.94,357.07c-45.8,0-82.95,37.15-82.95,82.96c0,45.81,37.15,82.96,82.95,82.96
		c45.82,0,82.96-37.15,82.96-82.96C2407.89,394.21,2370.76,357.07,2324.94,357.07 M2377.19,437.1c-1.25,6.31-5.06,11.19-8.83,16.04
		c-7.63,9.8-17.3,17.37-27.5,24.29c-4,2.73-8.21,5.13-12.32,7.68c-0.57,0.35-1.05,0.94-1.66,1.12c-0.67,0.23-1.64,0.42-2.16,0.11
		c-4.18-2.53-8.37-5.11-12.41-7.86c-4.28-2.89-8.5-5.88-12.58-9.05c-6.44-4.96-12.37-10.5-17.26-17.04c-3-3.99-6.11-8-7.62-12.89
		c-2-6.45-1.77-12.85,0.97-19.03c3.02-6.82,8.08-11.59,15.07-14.22c12.07-4.52,25.19-0.03,31.97,10.75c1.05,1.7,1.89,3.55,2.96,5.57
		c1.39-3.81,3.32-7.14,6.08-9.92c3.8-3.83,8.32-6.33,13.64-7.49c11.64-2.57,23.56,3.08,29.11,13.34
		C2377.85,424.35,2378.49,430.57,2377.19,437.1"/>
</g>
</svg>
