<svg id="Layer_1" data-name="Layer 1" xmlns="http://www.w3.org/2000/svg" viewBox="0 0 500 500"><defs><style>.cls-1{fill:#eb1d24;}.cls-2{fill:#fefefe;}</style></defs><path d="M249.63,439.61H34.06c-15.18,0-26.45-8-30.5-21.66a24.52,24.52,0,0,1-1.07-7.07q0-160.85,0-321.69c0-14.53,12.16-27.55,26.65-28.65,1.39-.11,2.79-.15,4.19-.15H466.59c15.83,0,27.76,9.75,30.48,25a40.09,40.09,0,0,1,.43,6.85q0,157.84,0,315.7c0,16-9.31,28.08-24,31.05a41.53,41.53,0,0,1-8.34.64Zm3.81-110.08h32.37q61,0,122,.06c2.78,0,3.84-.49,3.69-3.52-.27-5.68-.06-11.38-.08-17.07,0-4.67.54-4.2-4.11-4.2H99.76a12.5,12.5,0,0,1-1.5,0c-2-.28-2.78.46-2.73,2.61.13,6.19.2,12.39,0,18.57-.1,2.84.61,3.64,3.57,3.63Q176.25,329.45,253.44,329.53Zm-150-105.39c0,17.06,0,34.13,0,51.2,0,2,.4,2.81,2.59,2.69,3.38-.19,6.79,0,10.19-.06,12.06-.19,24.16.61,36.18-1.14,17.89-2.6,28.91-12.47,33.15-29.91,3-12.28,3-24.7,1.5-37.15-1-8.28-3.3-16.21-8.4-23-7.72-10.35-18.82-14-31-15.21-13.75-1.35-27.55-.28-41.32-.67-2.46-.07-2.92.72-2.91,3C103.44,190.61,103.4,207.37,103.4,224.14Zm300.35.46a87.57,87.57,0,0,0-3.07-24.85c-4.18-14.41-12.32-25.18-27.51-29.24a62.77,62.77,0,0,0-24.07-1.37c-15.08,1.86-26.39,9.28-32,23.6-8.05,20.7-8,41.76-.29,62.54,4.78,12.89,14.33,20.85,27.92,23.66a62.31,62.31,0,0,0,21.14.73c16.8-2.28,28.19-11.3,33.81-27.37C402.84,243.33,403.71,234,403.75,224.6ZM299.3,278a8.76,8.76,0,0,0-.18-1.2Q281.89,224.87,264.69,173a2.53,2.53,0,0,0-2.92-2.1c-7.89.1-15.78.15-23.67,0-2.26-.05-3,.8-3.65,2.78q-12.73,38.76-25.61,77.45C205.9,260,203,268.83,199.94,278c7.08,0,13.86,0,20.63,0,1.63,0,1.66-1.15,2-2.12,1.86-5.78,3.72-11.56,5.49-17.36.5-1.63,1.22-2.32,3.09-2.3q18.13.15,36.27,0c2,0,2.72.74,3.26,2.5,1.75,5.71,3.67,11.38,5.51,17.07.4,1.26.74,2.26,2.54,2.23C285.48,277.9,292.28,278,299.3,278Z"/><path class="cls-1" d="M253.44,329.53q-77.19,0-154.37.07c-3,0-3.67-.79-3.57-3.63.23-6.18.16-12.38,0-18.57,0-2.15.69-2.89,2.73-2.61a12.5,12.5,0,0,0,1.5,0H407.31c4.65,0,4.09-.47,4.11,4.2,0,5.69-.19,11.39.08,17.07.15,3-.91,3.53-3.69,3.52q-61-.13-122-.06Z"/><path class="cls-2" d="M103.4,224.14c0-16.77,0-33.53-.05-50.3,0-2.27.45-3.06,2.91-3,13.77.39,27.57-.68,41.32.67,12.17,1.2,23.27,4.86,31,15.21,5.1,6.83,7.39,14.76,8.4,23,1.52,12.45,1.48,24.87-1.5,37.15-4.24,17.44-15.26,27.31-33.15,29.91-12,1.75-24.12.95-36.18,1.14-3.4,0-6.81-.13-10.19.06-2.19.12-2.6-.67-2.59-2.69C103.43,258.27,103.4,241.2,103.4,224.14Zm22.11.17q0,15.56,0,31.13c0,1.07-.53,2.4,1.57,2.37,6.09-.1,12.19.16,18.23-.8,10.87-1.73,16.6-6.88,18.52-17a84.3,84.3,0,0,0,.28-29.76c-1.91-11.35-7.31-16.56-18.52-18.38-5.75-.93-11.55-.59-17.34-.76-2.15-.06-2.85.37-2.82,2.71C125.6,204,125.51,214.13,125.51,224.31Z"/><path class="cls-2" d="M403.76,224.6c-.05,9.43-.92,18.73-4.05,27.7-5.62,16.07-17,25.09-33.81,27.37a62.31,62.31,0,0,1-21.14-.73c-13.59-2.81-23.14-10.77-27.92-23.66-7.72-20.78-7.76-41.84.29-62.54,5.58-14.32,16.89-21.74,32-23.6a62.77,62.77,0,0,1,24.07,1.37c15.19,4.06,23.33,14.83,27.51,29.24A87.94,87.94,0,0,1,403.76,224.6Zm-22.72.46a77.41,77.41,0,0,0-.71-12.83c-.87-6.44-2-13-6.65-17.91-6.32-6.72-14.46-7-22.78-5.38-7.91,1.59-12.34,7.12-14.25,14.56a81.21,81.21,0,0,0-.06,41.39c2.67,10.18,8.48,14.7,19,15.7,11.83,1.13,19.84-4.32,23.12-15.72C380.54,238.39,380.92,231.74,381,225.06Z"/><path class="cls-2" d="M299.3,278c-7,0-13.82-.08-20.6,0-1.8,0-2.14-1-2.54-2.23-1.84-5.69-3.76-11.36-5.51-17.07-.54-1.76-1.25-2.52-3.26-2.5q-18.13.16-36.27,0c-1.87,0-2.59.67-3.09,2.3-1.77,5.8-3.63,11.58-5.49,17.36-.31,1-.34,2.14-2,2.12-6.77-.07-13.55,0-20.63,0,3-9.15,6-18,8.9-26.91q12.82-38.72,25.61-77.45c.65-2,1.39-2.83,3.65-2.78,7.89.17,15.78.12,23.67,0a2.53,2.53,0,0,1,2.92,2.1q17.16,51.93,34.43,103.82A8.76,8.76,0,0,1,299.3,278Zm-64.21-41.05c9.16,0,18,0,26.87,0,1.35,0,1.41-.48,1-1.61-4.52-13.8-9-27.61-13.65-42Z"/><path d="M125.51,224.31c0-10.18.09-20.36-.07-30.54,0-2.34.67-2.77,2.82-2.71,5.79.17,11.59-.17,17.34.76,11.21,1.82,16.61,7,18.52,18.38a84.3,84.3,0,0,1-.28,29.76c-1.92,10.17-7.65,15.32-18.52,17-6,1-12.14.7-18.23.8-2.1,0-1.57-1.3-1.57-2.37Q125.49,239.87,125.51,224.31Z"/><path d="M381,225.06c-.12,6.68-.5,13.33-2.37,19.81-3.28,11.4-11.29,16.85-23.12,15.72-10.48-1-16.29-5.52-19-15.7a81.21,81.21,0,0,1,.06-41.39c1.91-7.44,6.34-13,14.25-14.56,8.32-1.67,16.46-1.34,22.78,5.38,4.67,5,5.78,11.47,6.65,17.91A77.41,77.41,0,0,1,381,225.06Z"/><path d="M235.09,236.93l14.26-43.54c4.66,14.34,9.13,28.15,13.65,42,.37,1.13.31,1.61-1,1.61C253.1,236.92,244.25,236.93,235.09,236.93Z"/></svg>