<svg xmlns="http://www.w3.org/2000/svg" id="Layer_2" data-name="Layer 2" viewBox="0 0 1366.94 1671.98"><script xmlns="" id="argent-x-extension" data-extension-id="dlcobpjiigpikoobohmabehhmhfoodbb"/>
  <defs>
    <style>
      .cls-1 {
        fill: #000;
      }
    </style>
  </defs>
  <g id="Layer_3" data-name="Layer 3">
    <path class="cls-1" d="M448.64,552.97c-182.04,226.82-263.72,444.32-292.53,552.88-39.83,150.13,140.94,432,140.94,432,65.68-317.95,228.71-574.81,368.42-748.98-96.96-120.88-182.68-201.92-216.83-235.91Z"/>
    <path class="cls-1" d="M1362.75,37.9c-30.04-74.35-266.55-61.28-634.21,242.04-13.32,10.99-26.34,22.06-39.07,33.18,84.56,73.87,156.25,150.37,216.83,225.85,.57-.57,1.13-1.13,1.67-1.67,79.66-79.66,505.53-373.79,454.78-499.4Z"/>
    <path class="cls-1" d="M677.47,320.12c-12.73-11.12-25.75-22.19-39.07-33.18C270.74-16.38,34.22-29.45,4.19,44.9c-50.75,125.62,375.12,419.74,454.78,499.4,.54,.54,1.1,1.1,1.67,1.67,34.15,33.99,119.87,115.03,216.83,235.91,139.71,174.17,302.74,431.03,368.42,748.98,0,0,180.77-281.87,140.94-432-28.8-108.56-110.48-326.07-292.53-552.88-60.58-75.48-132.27-151.98-216.83-225.85Z"/>
    <path class="cls-1" d="M308.72,1546.18s341.2,288.53,723.6-8.32c0,0-29.55-147.4-69.34-241.06,0,0-292.5,209.87-583.38,0,0,0-60.15,168.19-70.87,249.38Z"/>
  </g>
</svg>