<svg xmlns="http://www.w3.org/2000/svg" xmlns:xlink="http://www.w3.org/1999/xlink" version="1.1" width="900" height="900" viewBox="0 0 900 900" xml:space="preserve"><script xmlns="" id="argent-x-extension" data-extension-id="dlcobpjiigpikoobohmabehhmhfoodbb"/>
<desc>Created with Fabric.js 3.6.3</desc>
<defs>
</defs>
<g transform="matrix(11.04 0 0 11.04 450.13 449.95)">
<path style="stroke: none; stroke-width: 1; stroke-dasharray: none; stroke-linecap: butt; stroke-dashoffset: 0; stroke-linejoin: miter; stroke-miterlimit: 4; fill: rgb(122,4,221); fill-rule: nonzero; opacity: 1;" transform=" translate(-240.06, -37.03)" d="M 276.349 29.0191 H 250.382 L 235.182 44.1225 H 256.042 C 253.327 50.194 247.196 54.4308 240.086 54.4308 C 230.448 54.4308 222.626 46.6397 222.626 37.0406 C 222.626 27.4325 230.448 19.6238 240.086 19.6238 C 243.583 19.6238 246.84 20.6431 249.563 22.4069 L 263.632 8.4026 C 257.216 3.15541 249.002 0 240.041 0 C 219.52 0 202.879 16.5747 202.879 37.0406 C 202.879 57.4798 219.52 74.0546 240.041 74.0546 C 260.589 74.0546 277.239 57.4798 277.239 37.0406 C 277.239 34.284 276.927 31.5895 276.349 29.0191 Z" stroke-linecap="round"/>
</g>
<script xmlns=""/></svg>