<svg xmlns="http://www.w3.org/2000/svg" viewBox="0 0 190.68 297.87"><defs><style>.cls-1{fill:#1d1d1b;}.cls-2{fill:#d81f20;}</style></defs><g id="Layer_2" data-name="Layer 2"><g id="_ÎÓÈ_4" data-name="—ÎÓÈ_4"><path class="cls-1" d="M119.57,249.48V228.81h4.25v9.07l8.11-9.07h5l-8.2,9,9,11.71h-5.13l-6.67-9-2.18,2.38v6.61Zm-65.9-20.67H70.22v3.54h-6v17.13H59.93V232.35H53.67Zm25-2.58v-3.46h3.12v3.46ZM84,222.77h3.12v3.46H84Zm2.89,6h4.25v14.26a6.41,6.41,0,0,1-3.88,6.21,10.76,10.76,0,0,1-4.23.85,11.78,11.78,0,0,1-4-.68c-3.43-1.9-4.28-4.34-4.28-6.38V228.81H79v14.32c.09,1.27.43,3.31,3.91,3.31s4-2,4-3.31Zm10.43,20.67V228.81h11.48c2.07.09,4.17,1.05,4.76,3.29a6.91,6.91,0,0,1,.2,4.17,5.07,5.07,0,0,1-2.8,3.26c.7.48,2.07,1,2.29,2.86.14.85.2,3.57.2,4.62s.34,1.39.79,1.7v.77h-4.56a5,5,0,0,1-.57-1.93c0-.51,0-1.14,0-1.9s0-1.5,0-2.27c-.08-1.39-1.07-2.07-2.55-2.07h-5v8.17Zm4.25-17.13v5.42h5.81a2.75,2.75,0,0,0,2.53-3.09c0-1.47-.65-2.33-2.58-2.33Z"/><path class="cls-1" d="M181.78,259.21h8.9l-12.35,24.34v14.32h-8V283.55l-12.73-24.34h8.86l7.84,16.65ZM0,297.87V259.21H8v17l15.17-17h9.44L17.23,276l16.86,21.9H24.5L12,281.06,8,285.51v12.36Zm45.65-38.66v38.66H37.7V259.21Zm5,0H79.74v6.63L60,291.24H79.74v6.63h-29v-6.63l19.72-25.35-19.72-.05Zm42.1,0v38.66h-8V259.21Zm5.84,0h8v32h18.5v6.63H98.63Zm52.18,0,13.25,38.66H156l-2.65-7.74H139l-2.7,7.74h-8.12l13.47-38.66Zm-4.56,9.28-4.78,15h9.92Z"/><path class="cls-2" d="M0,43.86A104.76,104.76,0,0,1,83.78,0C141.24-1,188.6,43.67,189.57,99.81S144.74,202.26,87.28,203.28A104.56,104.56,0,0,1,.15,159.88a88.64,88.64,0,0,0,57.71,19.54c46.76-.83,84.08-36.33,83.34-79.29S102,23,55.18,23.84A88.87,88.87,0,0,0,0,43.86Z"/></g></g></svg>