<svg xmlns="http://www.w3.org/2000/svg" xmlns:xlink="http://www.w3.org/1999/xlink" version="1.1" id="Layer_1" x="0px" y="0px" viewBox="0 0 610 466.1" style="enable-background:new 0 0 610 466.1;" xml:space="preserve"><script xmlns="" id="argent-x-extension" data-extension-id="dlcobpjiigpikoobohmabehhmhfoodbb"/>
<style type="text/css">
	.st0{fill:#ED1C24;}
	.st1{fill:none;stroke:#ED1C24;stroke-width:2;}
</style>
<path class="st0" d="M384.3,255.9c-2-2,0.5-2,2.5-3c8-3,55.7-18.1,97.3-29.1s101.3-23.6,110.4-25.1c3.5-1,5,0,7,3  c2,3.5,7,15.6,8.5,25.1c2,12,0,24.6-1,27.6c-1,2.5-4.5,2.5-12.5,5c-5,1.5-25.6,6.5-34.1,9c-9.5,3-35.6,10.5-45.2,13.5  c-11.5,4-27.1,9-27.1,9l-82.3,1.5c0,0-1-5.5-2-6c-0.5-0.5-2-3-2.5-4c-0.5-0.5-1.5-3.5-1.5-3.5s-0.5-3-1-3.5s-2.5-4.5-3-5  s-2.5-2.5-3-3.5s-1-2-2.5-3c-1-1-2.5-3-3.5-3.5C387.3,259.4,386.3,257.9,384.3,255.9"/>
<g>
	<path class="st0" d="M168.1,403.4c4.5-2.5,14.6-8,16.1-9c2-1,3-1,3-0.5c0,2.5,0,7,3,8c1,0.5,3-1,3.5,0c1,1.5,1,1.5,1.5,2s2,0,2,0.5   c1,0.5,0,1.5,0.5,2c1,1,2-0.5,3-0.5c1.5,0.5,1.5,1.5,1.5,2.5c-0.5,1.5,0.5,3,3,0.5c1.5-1,1.5-0.5,2.5-1c0.5-0.5,2-0.5,2.5,0   s1.5,1.5,2,1.5c1,0.5,2,0,3,0.5s1,2,2,2s1.5-1.5,2.5-1c1.5,1.5-1.5,4,0.5,4.5c1,0.5,1.5-0.5,2.5-0.5s1.5-1,2-1s1.5,1,2,0.5   c1-0.5,1.5-0.5,2-1c1-0.5,2-0.5,2.5-1s0-2,2.5-2c2,0.5-0.5,2.5,0.5,3c0.5,0.5,2.5,0,3,0c1-0.5,2.5-2,2.5-3c0.5-1,2.5-5,3-6.5   c0.5-1,2.5-5.5,3.5-7s5-7.5,5-8.5c0.5-1,2-2.5,2-3c0.5-0.5,1-3,2-5s3.5-6,4-6.5c0-0.5,2.5-5.5,3-7s3.5-5,4-6.5s2.5-5,2.5-5l2-3   c0,0,0.5-1.5,1.5-3c1-2,3.5-5.5,4-7s3-4,3-4l1.5-3.5l1-2.5c0,0,1-3,1.5-4s2-3,2.5-4s2-6,2.5-7.5s4.5-8,4.5-9l4.5-9   c0.5-1.5,0.5-3,1-4s2-3,2-3.5s2.5-6.5,3-7.5s0.5-2.5,1.5-2.5s1.5,1,2.5,2c0.5,1,2,1,3,1.5c1,1,3.5,4,4,4.5c0,0.5,1.5,0.5,2,1   s0.5,1.5,1,2c0.5,0,3,2,3.5,2.5s1,2,1.5,2.5s3.5,2,4,3c0.5,0.5,4.5,5.5,5,6.5s1,2.5,1,3c0.5,0.5,2,1.5,2,2s0,3,0.5,3.5s2,1.5,2.5,2   c0,0.5,1,3,1.5,3.5l1.5,1.5c0.5,0.5,0.5,3,1,3.5s1.5,2.5,2,3.5s1.5,2.5,2,3c0,0.5,0.5,3,0.5,4c0.5,1,1.5,2.5,1.5,3s0.5,2,0.5,2   l1,2.5c0,0,1,2.5,1,3c0,1,0,2,0.5,2.5c0,0.5,1,2,1,2.5s1.5,3.5,1.5,3.5s-0.5,2.5,0,3c0,0.5,1.5,2.5,1.5,3s-0.5,2-0.5,2l0.5,1   c0,0-0.5,1.5,0,2v2c0.5,0.5,1.5,3,1.5,3c-0.5,1-51.7,24.6-73.3,34.6c-31.6,14.6-96.8,47.7-103.9,51.7c-7,4-11.5,6.5-13,5.5   c-4-2-10-7.5-14.6-19.6c-3.5-10-3.5-18.6-3.5-22.6c0-3,0-5.5,5-8.5C154.5,411.5,163.6,406.4,168.1,403.4 M77.8,223.3   c0,0.5,1.5,0.5,2,0.5s1,1,1.5,1h1.5c1,0.5,0.5,1.5,1,2s0.5,2,1.5,2s1.5,0,2,1c0,0.5-0.5,2,0,3c1.5,2.5,0,9,1.5,9.5c1,0.5,5-0.5,6-2   c1.5-1,3-3,4-3.5c2-1,5.5-3,7.5-3c2-0.5,2.5-3,4.5-3.5c1.5,0,1-1.5,2.5-2c1-0.5,3.5-1.5,4-1s1,1.5,2,1.5c1.5,0.5,3,0,3,1.5   c0.5,2,3.5,0,3.5,0s4-2.5,5.5-3.5c1.5-0.5,6-3,6-3s3.5-2,5-2.5c55.2-26.6,98.3-41.1,138-56.2c63.2-24.1,170.6-51.7,191.2-56.7   c2-0.5,7-1.5,7.5-1.5c0.5-0.5,1.5-0.5,2-2.5s-1-4.5-1-5.5s2-5,2.5-6.5c0-1.5-1.5-2-1.5-2v-3.5c-0.5-1.5-3-3-3.5-4s0-5-0.5-6   s-2-2-2-2s0.5-0.5,0-1.5s-1.5-1-1.5-1s0.5-2.5,0-3c0-1-1.5-1.5-1.5-1.5s-1.5-1-1.5-2s0-1.5-1-2c-0.5-0.5-3-0.5-3.5-0.5   s-2.5-0.5-3.5-0.5s-1.5,1-5,2c-3.5,0.5-5,0-6.5,0s-3,1-5,1.5c-16.6,4.5-92.8,26.6-149,47.7c-52.2,18.6-114.4,47.2-152.5,66.7   c-28.6,15.1-44.2,23.6-50.2,27.6c-3.5,2-7,4.5-7.5,5.5c-1,1.5-2,3.5-3.5,4c-2.5,0.5-2,1.5-2.5,2c-1,0-2,1-2.5,2   C77.3,221.8,77.3,222.8,77.8,223.3 M314.6,189.2c-2.5-1.5-1.5-3,1.5-4c18.1-7.5,64.2-24.1,90.3-32.6c22.6-7,84.3-27.1,101.9-32.1   c4-1,6-1,7.5,1c4.5,5,9,11.5,13.5,20.1c4,7.5,7.5,18.6,8.5,25.6c1,5-1.5,6-4,7c-19.1,8.5-66.7,29.1-86.3,38.6   c-19.1,9-54.2,26.1-66.2,32.1c-5,2.5-4,3.5-7.5-0.5c-1-1-2.5-4-3-4.5s-7-6.5-8-7.5c-0.5-0.5-4.5-5-5.5-6c-1-0.5-4-5-5-5.5   s-2.5-1.5-3.5-2c-0.5-0.5-2-2.5-2.5-2.5c-0.5-0.5-2.5-2-2.5-2l-2.5-2.5l-2-2c0,0-1.5-2-3-2.5c-1-0.5-3-2.5-3.5-3s-4.5-5.5-6.5-7   c-2-1-6.5-4.5-7.5-5C318.1,191.2,316.6,190.2,314.6,189.2 M285,97.4c-2.5,0-4.5,0-5-0.5s0-1-0.5-1.5s-1.5-0.5-2,0s-0.5,0.5-1,0.5   c-1,0.5-4-1-5-0.5s-3.5,0.5-4,0c-1-0.5-1-2.5-2.5-3c-0.5-0.5-3-1.5-3.5-3s-2.5-3-3-4s-1-2.5-1.5-3s-1-2.5-1.5-3l-1.5-1.5   c-0.5-0.5-1-2.5-1.5-3c0-0.5-1-1-1-1.5c-0.5-0.5-0.5-1-0.5-2c-0.5-0.5-1-1.5-1.5-2.5c0-0.5-0.5-5-0.5-8c0-3.5,0-6,0.5-7.5   s1-2.5,1.5-4s2-6,2.5-8s1.5-6,2-7.5s2-5,2.5-6s3.5-5.5,4.5-6.5c1-1.5,6-6.5,7.5-7.5c1-1,4-3,5-3.5c0.5-0.5,4-3,5-3.5s2-0.5,2-0.5   l1-1c0,0,0.5-0.5,1.5-1c0.5-0.5,2-0.5,2-0.5s2-1.5,3.5-1c1,0,1.5-1.5,2-1.5c1-1,4-1,4-1c0.5,0.5,1,1,2.5,1c1.5,0.5,2.5,0,3.5,0   s1.5,1,2,1.5c0.5,0,7,6.5,8,8c0.5,0.5,0.5,1.5,0.5,2c0.5,0.5,1.5,1,2,3c0,1,1.5,1.5,1.5,3.5c0,1,2,2,3,4.5c0,0.5,0.5,3,0.5,3   c0,0.5,0.5,0.5,1,1.5s0.5,2,0.5,3s1.5,4.5,1.5,7s-0.5,4.5-1,6.5c-0.5,1.5,0,5-0.5,6.5s-1.5,4.5-1.5,5.5s-3,8-3.5,8.5s-2,4-3,5   c-0.5,1-6.5,8.5-7.5,10c-1,1-3.5,3-4,3.5c-0.5,1-1,2-2,3.5c-1,2-2.5,0.5-3.5,1.5c-1,1.5-3,2-3.5,3c-0.5,1.5-2,3-2.5,3.5   C289.5,96.4,286.5,97.4,285,97.4 M120.4,338.7c0,0-24.1,8-33.6,11.5c-9,3-19.1,6.5-25.6,9.5c-8,3.5-22.6,9-26.1,10.5   c-5.5,2-7.5,1-9-2.5c-1.5-3-5-10-7-17.6c-2-8-2.5-14-2.5-16.6s2-6.5,5-8.5c3-1.5,10-6,15.6-9c10.5-6,47.7-26.1,69.7-37.1   c23.1-12,60.2-30.1,79.8-39.6s52.2-25.1,56.2-27.1c4-1.5,8-3.5,10-3.5s1,1,1,1.5s-0.5,1-1,2.5c0,1.5,0,3-0.5,4.5s-2,3-2,4   s-0.5,4.5-1.5,5.5s-4.5,8-5,11s-2.5,8.5-3,9.5l-3.5,7c0,1.5-2,5-2.5,6.5s-3.5,7-4,8s-2.5,7.5-3,8.5s-2.5,4-2.5,4l-1,4   c0,0-2.5,4-2.5,4.5s-2,7.5-3,9s-5.5,12-6.5,15.6c-1,3.5-2.5,9-3,10s-3,5.5-3.5,7s-2.5,9-3.5,10c-0.5,1.5-2.5,5.5-2.5,7   s-1.5,4.5-2.5,7.5c-1,2.5-2.5,7.5-3.5,9c-0.5,1.5-1.5,3-2,4c0,1-0.5,3.5-0.5,4.5c0,0.5-0.5,2-0.5,2c-1,0.5-66.7,28.6-76.3,33.1   c-9.5,4.5-75.8,36.1-80.3,38.1c-4,2-9.5,6-13.5,3.5c-5.5-3.5-10.5-11-14-18.1c-3-5.5-6-15.1-6.5-21.6c-0.5-8.5,3-10,15.1-17.1   c6-3.5,54.2-28.6,69.2-36.6C89.3,355.3,120.4,338.7,120.4,338.7"/>
</g>
</svg>