<svg xmlns="http://www.w3.org/2000/svg" width="300" height="300" xml:space="preserve"><path fill="#231F20" d="M20.774 247.37v-1.809l6.521-.005v5.71c-1.002.794-2.038 1.399-3.1 1.804a9.23 9.23 0 0 1-3.276.6c-1.512 0-2.89-.32-4.128-.968a6.47 6.47 0 0 1-2.792-2.812c-.631-1.226-.947-2.598-.947-4.107a9.55 9.55 0 0 1 .936-4.19c.631-1.305 1.536-2.267 2.708-2.897 1.178-.631 2.532-.947 4.065-.947 1.115 0 2.119.185 3.013.547.902.358 1.611.857 2.122 1.505.51.646.902 1.482 1.167 2.519l-1.838.505c-.231-.784-.521-1.399-.862-1.846-.342-.447-.833-.805-1.473-1.073-.636-.273-1.341-.41-2.116-.41-.936 0-1.738.143-2.419.426-.678.284-1.225.657-1.646 1.115a5.377 5.377 0 0 0-.967 1.524 8.07 8.07 0 0 0-.589 3.098c0 1.372.234 2.524.705 3.449a4.592 4.592 0 0 0 2.067 2.057 6.436 6.436 0 0 0 2.879.673c.883 0 1.743-.168 2.584-.51.839-.342 1.475-.705 1.914-1.089v-2.866h-4.528zM85.208 225.758v-15.396h3.068l3.642 10.896c.336 1.021.581 1.783.733 2.282.176-.562.45-1.383.82-2.466l3.686-10.712h2.74v15.396h-1.961V212.87l-4.472 12.888h-1.84l-4.451-13.104v13.104h-1.965zm-5.366-15.397h2.038v8.893c0 1.546-.176 2.781-.526 3.691-.35.909-.983 1.65-1.903 2.224-.91.568-2.106.853-3.589.853-1.441 0-2.622-.247-3.539-.752a4.233 4.233 0 0 1-1.964-2.151c-.392-.946-.589-2.234-.589-3.864v-8.893h2.038v8.882c0 1.341.124 2.329.368 2.966a2.886 2.886 0 0 0 1.28 1.456c.607.342 1.352.516 2.227.516 1.499 0 2.566-.337 3.202-1.021.639-.678.957-1.982.957-3.917v-8.883zm-22.148 15.397v-15.396h2.038v13.577h7.583v1.819h-9.621zm-12.223-8.076h3.98c1.317 0 2.25-.247 2.803-.742.555-.483.831-1.178.831-2.066 0-.642-.166-1.193-.492-1.646a2.287 2.287 0 0 0-1.283-.915c-.344-.09-.978-.132-1.904-.132H45.47v5.501zm-2.035 8.076v-15.396h5.805c1.023 0 1.804.048 2.343.147.754.126 1.388.368 1.901.721s.92.847 1.228 1.482c.313.642.471 1.336.471 2.104 0 1.304-.416 2.419-1.249 3.323s-2.34 1.356-4.515 1.356h-3.949v6.263h-2.035zM28.186 218.291c0 1.852.497 3.313 1.491 4.391 1.002 1.062 2.253 1.594 3.76 1.594 1.53 0 2.792-.536 3.781-1.619.994-1.073 1.491-2.608 1.491-4.586 0-1.257-.215-2.351-.639-3.275-.421-.941-1.041-1.667-1.861-2.178-.81-.515-1.725-.778-2.742-.778-1.438 0-2.682.5-3.726 1.494-1.037.982-1.555 2.639-1.555 4.957zm-2.101-.031c0-2.556.686-4.554 2.059-6s3.142-2.172 5.313-2.172c1.422 0 2.7.342 3.844 1.021a6.635 6.635 0 0 1 2.603 2.84c.603 1.214.902 2.592.902 4.133 0 1.562-.312 2.96-.944 4.186-.628 1.235-1.522 2.167-2.676 2.803a7.683 7.683 0 0 1-3.739.952c-1.449 0-2.745-.353-3.886-1.052a6.793 6.793 0 0 1-2.592-2.866 8.7 8.7 0 0 1-.884-3.845zm-8.6 7.498v-13.577h-5.072v-1.819h12.205v1.819H19.52v13.577h-2.035zM166.176 236.97v-2.204h2.04v2.204h-2.04zm0 16.432V238.01h2.04v15.392h-2.04zm-14.453-8.597h4.378c.936 0 1.661-.09 2.188-.279.521-.199.92-.51 1.193-.925.273-.427.41-.889.41-1.389 0-.726-.269-1.325-.8-1.793-.525-.474-1.356-.699-2.492-.705h-4.877v5.091zm-2.038 8.597V238.01h6.831c1.367 0 2.408.142 3.123.42.71.279 1.283.758 1.709 1.462.432.7.642 1.473.642 2.319 0 1.089-.352 2.014-1.057 2.761-.71.752-1.798 1.226-3.276 1.431.537.257.947.515 1.23.768.59.547 1.157 1.225 1.688 2.045l2.682 4.187h-2.566l-2.04-3.197c-.589-.921-1.083-1.636-1.467-2.125-.384-.488-.736-.83-1.036-1.025a3.182 3.182 0 0 0-.928-.41c-.231-.053-.61-.073-1.136-.073h-2.361v6.831h-2.038zm-14.979 0V238.01h11.13v1.813h-9.092v4.723h8.516v1.809h-8.516v5.232h9.449v1.814h-11.487zm-12.733 0V238.01h2.038v13.577h7.583v1.814h-9.621zm-9.068-16.333v-2.156h1.977v2.156h-1.977zm-3.915 0v-2.156h1.975v2.156h-1.975zm6.993.942h2.038v8.897c0 1.546-.176 2.776-.526 3.681-.352.915-.983 1.656-1.901 2.229-.91.567-2.108.852-3.591.852-1.443 0-2.624-.252-3.539-.746-.917-.495-1.572-1.215-1.964-2.151-.392-.946-.586-2.234-.586-3.864v-8.897h2.035v8.887c0 1.335.121 2.324.368 2.96a2.854 2.854 0 0 0 1.283 1.457c.607.347 1.352.521 2.225.521 1.499 0 2.563-.342 3.202-1.021.636-.678.957-1.982.957-3.917v-8.888zm-22.792 15.391V238.01h2.035v13.577h7.585v1.814h-9.62zm-12.607 0V238.01h2.038v13.577h7.583v1.814h-9.621zm-9.068-16.333v-2.156h1.977v2.156h-1.977zm-3.918 0v-2.156h1.977v2.156h-1.977zm6.996.942h2.038v8.897c0 1.546-.173 2.776-.525 3.681-.353.915-.983 1.656-1.901 2.229-.91.567-2.106.852-3.591.852-1.441 0-2.622-.252-3.536-.746-.918-.495-1.575-1.215-1.964-2.151-.394-.946-.589-2.234-.589-3.864v-8.897h2.035v8.887c0 1.335.124 2.324.368 2.96a2.84 2.84 0 0 0 1.283 1.457c.61.347 1.349.521 2.224.521 1.499 0 2.566-.342 3.205-1.021.636-.678.954-1.982.954-3.917v-8.888zm-26.297 15.391V238.01h2.088l8.087 12.089V238.01h1.951v15.392h-2.087l-8.087-12.09v12.09h-1.952zm-9.678-16.333v-2.156h1.975v2.156h-1.975zm-3.918 0v-2.156h1.975v2.156h-1.975zm-2.279 8.871c0 1.856.497 3.317 1.491 4.391 1.001 1.062 2.253 1.599 3.76 1.599 1.533 0 2.795-.542 3.781-1.62.994-1.077 1.491-2.607 1.491-4.585 0-1.262-.213-2.351-.639-3.281-.418-.936-1.042-1.662-1.859-2.172-.812-.521-1.728-.778-2.742-.778-1.441 0-2.685.5-3.729 1.493-1.037.989-1.554 2.64-1.554 4.953zm-2.101-.026c0-2.556.687-4.554 2.059-6 1.372-1.451 3.145-2.177 5.316-2.177 1.42 0 2.698.342 3.841 1.02a6.617 6.617 0 0 1 2.605 2.851c.6 1.209.902 2.582.902 4.122 0 1.562-.315 2.961-.944 4.191-.631 1.23-1.525 2.166-2.679 2.803a7.674 7.674 0 0 1-3.736.946c-1.451 0-2.748-.353-3.889-1.052a6.755 6.755 0 0 1-2.592-2.865 8.67 8.67 0 0 1-.883-3.839z"/><path fill="#231F20" d="M236.381 186.32c-.521.931-1.136 1.84-2.214 2.208h-2.944l-.742 1.104h-.736l-.367.736h-1.11l-.368.741h-3.312v.368h-.736l-.373.736h-1.104l-.373.741h-1.104l-.368.736h-.736v.368h-1.109l-.368.736h-1.472l-.368.736-1.104.367-1.478 1.846h-1.104l-1.478 1.846h-.736l-1.104 1.473h-.373v.736l-1.104.741v.731l-.742.368v.741h-.368l-.368.736h-2.581c-.427.241-.463 1.42-.742 1.84l-.735.374v.741l-.736.368-1.1 1.473h-.373l-.368.735h-.736l-.741.731v.741l-1.473 1.104v.741l-.741.368-.362 1.478-.742.368-.368 1.841-1.472 1.104v.736h-.368l-.368 1.478h-.368v2.95l-.736.368v1.478h-.373l-.368 1.467h-.368v1.846l-.736.374c-.567 1.361.189 5.658.368 6.631.668.353.584.516 1.478.741.973-1.346.783-.168 2.209-.741v-.368h.73l.373-.736h1.473l.373-.73 2.209-.374.373-.736h1.478l.363-.735h.736l1.472-1.846h.742l1.478-1.846h1.104l.736-1.11h1.478l.368-.73h1.104l3.318-3.687 1.846-1.478v-1.104h.368c.636-1.156-.253-.221.736-1.109v-.368h.736l.373-.73h1.099l4.06-4.428 1.846-1.478v-1.841l2.577-1.84v-1.104c.336-.494 2.066-.757 2.581-1.115l.736-1.104h.374v-1.473l1.104-.741v-1.1l.736-.368.374-1.846.73-.368v-.741h.368v-.736l.741-.368v-.368l.731-.367v-.742l1.478-1.104.368-1.473 1.109-.736.736-2.214.741-.368v-.741l.736-.368v-.736h.368l1.467-1.846c-1.136-.426-3.103-.379-4.79-.368v-.362h-1.474zm27.286-65.259h-2.214l-.373.738h-1.104l-.741 1.104h-2.577v.371l-1.473.365v.368h-1.478l-.362.738h-1.478l-.374.736-1.835.371v.368h-.741v.368h-.736l-.368.738h-.741l-1.104 1.473-1.478.371v.368h-1.478l-3.312 3.686h-1.846l-.368.739h-2.214l-1.836 2.582h-.741v.365h-.736l-.368.738h-.735l-.374.739h-.736l-.735 1.104-1.11.368-.367.738h-1.841l-1.841 2.582h-1.109l-.741 1.104h-1.104l-3.312 4.422h-.741l-.736 1.107h-.736l-.373.738h-1.104v.371l-1.104.736v.735h-.368v.736l-.741.371v1.104l-1.104.741v1.102l-.741.368v1.478h-.363c-.41.589-.521.62-.736 1.473h.368v.373h1.104v-.373h1.473v-.368h.741l.368-.736h1.473l.373-.736h1.473l.736-1.109h1.104l2.214-2.579h5.164l.73-1.478 3.324-.736 1.478-1.841 1.104-.37.368-1.107h1.109l.731-1.104h1.104v-.367h.741l.368-.736h.736l1.478-2.585h1.478l2.203-2.579h1.478l.368-.736 1.478-.37 1.473-1.841.741-.371v-.738l.736-.368 1.841-2.209h.735l2.22-2.584h1.099l.373-.733 2.582-2.214 1.1-1.844h1.109l.368-.738h1.104c1.081-.65 2.417-3.779 2.58-5.527zM149.74 80.134c.967-.191 2.929-1.199 3.32-1.84v-1.107h.368l.736-1.106h.739v-.368c1.133 0 2.231-.042 2.952.368l.368.738h1.473l.368.739h.735v.365h4.055v.371c.799.173 1.109-.371 1.109-.371h6.631v.371l1.478.367 1.478 1.844h.736l.368.738h.731v.368h2.955v.368h.736v.371h1.109v.365l1.84 1.475c.306.556-.236 1.476.374 1.846h2.944l.736 1.104h1.104l.373.736h1.104l1.109 1.478h.368c.389.721-.142 1.33.368 1.841l2.208.738v2.214l.368.368c.915.46 1.888.699 2.95 1.104-.168.954-.353 1.633-.368 2.95 1.398.507 2.024.395 2.214 2.211h-.368v2.579l1.109.739-.373 2.949 1.104.736.368 1.846.736.368v.739h.367c.348.505.248.649.368 1.472-1.456 1.028-.152 3.197-.735 5.164h-.368v1.473l-.736.371v8.11l.736.366v.738h.368l.367 1.107c-1.072.657-1.467 1.543-1.472 3.317.704.463.615.374.736 1.476-1.757.996-2.893 2.784-4.055 4.425l-1.104.736-.368 1.475-.735.368v1.846c.221.145.205.158.362.368.741-.213.326.045.741-.368h.368v-.736l1.104-.741v-.368h.741v-.368l1.478-1.106.731-1.104h.736l3.323-3.687h.736l1.104-1.846h.742l.735-1.106 2.577-2.209 5.9-6.271 1.472-.365.736-1.107h1.109l.736-1.106h1.109v-.371l1.104-.368.736-1.104h1.109l.368-.736h.736l.736-1.107 1.478-.368 1.104-1.478h1.11l.368-.736h.735l.736-1.106h1.473l.368-.736h2.214l.736-1.109h1.846l.368-.733h2.214l.73-1.107h1.846l.373-.738h1.841v-.368h.741l.368-.739h3.681v-.368h.742v-.368h4.054l.741-1.104h1.104l.363-.736h.736v-.371h1.109l.368-.736h1.109l.368-.738h3.691v-.371h.73l.368-.733h.741v-.371h.736v-.365c1.746-.634 4.906.492 5.532 1.104.41.357 1.641 1.746 1.84 2.211v1.478l.736.365v.736h.368c.573 1.32-.473.884.736 1.846v.368h1.109c.494-1.106 1.226-1.995 2.214-2.582h.736l.736-1.104h3.318l1.846 2.211h.368v2.214l.741.368v2.949h.368v1.107l.736.365c.557 1.37-.537 2.674-.736 3.318v4.057h-.368v.736l-.741.368v1.106l-1.104.739v1.106h-.374l-.367 1.104-.736.368-.368 1.478-.741.368v1.107l-1.104.733v2.214l-.736.37v2.577h-.368v.738l-.736.371v2.579l-.736.368v2.214l-1.109.736v1.475l-.736.368v1.843l-1.109.736v1.478l-.736.368v1.843l-.736.366v.741h-.368l-.373 1.846-2.203 1.47v4.06l-1.109.736v2.208l-.736.368v1.478l-.736.368v1.478h-.373c-.673.941-.968.957-1.104 2.582.379.189.646.684.736.731l1.846.367 1.846 2.582h.736l.362.742 1.109.735v.736l2.214 1.846v1.841l.736.368v1.846c-.726.657-.31.726-.736 1.478h-.373v.736l-1.841 1.478-.373.736h-.736l-.73 1.099h-2.214l-.368.741h-5.164l-.362-.741h-1.478l-.736-1.099h-1.846v-.368l-2.214-.368c-.194.479-.152-.11-.373.368v1.099l-2.945 2.582v.736h-.368v.741h-.368v1.104l-.736.368v1.109h-.373l-.368 1.104-.73.368v.735l-.741.368v.736c-.41.516-1.205.416-1.846.741v.368h-1.1l-.741 1.104-.736.373v2.209l-.736.373v2.577l-.741.368v.736h-.368c-.631 1.01.342.684-1.104 1.104v.374l-2.219.368v.373h-.368v1.104l-1.099.736v.735h-.368v1.104h-.368c-.195.263-.721.705-.736.736v.736l-.741.368v.741l-1.11.736v1.478l-1.104.736-.368 1.104h-.736v.373h-.741l-.363.73h-1.84l-.374.736-.736.374v2.213l-1.846 1.473-4.422 4.791h-.736l-.368.741c-.73.373-1.388-.216-1.846.368l-.368 2.214-.741.368v1.104l-1.841 1.473v.368l-1.478.368-.73 1.109h-.741l-.736 1.104h-.736l-.373.736h-.736l-1.473 1.846h-.736l-.373.741-1.846 1.473v.736l-.731.367v.368h-1.104v.368l-1.11.374-.368.735-1.478.363-.368.741h-1.109l-1.84 2.214h-.736l-.736 1.104-1.478.368-.736 1.104h-1.104l-.368.735h-.735v.374h-1.846l-.368.736h-1.104v.368h-.736l-.368.735h-4.06l-.741-1.472h-.736l-.368-.742h-.368l-2.576-2.944-1.109-.736v-1.846h-.368l-.368-1.478h-.368v-2.576l-.741-.368v-.736h-.368l.368-2.214.741-.368v-5.164h.368v-.736h.368l.368-3.686h.368v-.741h.373v-1.841l.736-.368V225.4h.368v-.741l.735-.368v-1.473l.742-.373.362-2.214.736-.368v-1.472h.368v-.736l.741-.368v-1.473l.736-.373v-1.473l1.109-.741v-.736l1.841-1.473.368-1.472 1.846-1.473.368-1.478 1.472-1.109v-.736h.368v-1.109l1.104-.736.373-1.104h.368v-1.104l1.104-.368.368-.736 1.478-1.109.741-2.214 1.1-.368.736-1.104h1.104l2.214-2.582 2.955-2.582.736-1.104 1.473-.368 3.691-4.054h.736l1.104-1.478 1.472-.368.736-1.104h1.109l.736-1.109h1.846l.368-.736h1.846l.368-.736 3.687-.368v-.368l1.472-.368 1.478-1.84h.736l.742-1.109h1.84l.363-.742h2.214v-.368h.735l.374-.735h1.478v-.368h.736v-.374h2.203v-.362l1.478-.374v-.367h4.428v-.368h1.109v-.363h2.944v-.373l5.527-9.954.373-2.95.736-.368v-1.102l.736-.373.368-1.473.741-.371v-1.106l1.104-.733v-1.107l.735-.37v-4.791l.736-.37v-.739l2.214-1.84c.2-.484-.852-3.879-.362-5.164h.362v-.739h.368l.368-1.102c-.221-.147-.205-.16-.368-.368h-.73c-.332.521-.511.853-1.109 1.102h-.742l-1.472 1.846h-.736l-.368.739-2.219.368-4.05 4.425h-.741l-1.473 1.843h-.735l-.368.736h-.374l-2.576 2.947h-2.95v.371h-.736v.368h-1.109v.368l-.736.37v.739l-.741.368v.733l-.73.37-1.473 1.844-3.323 1.109-2.209 2.579h-2.582l-.368.368c.021 1.693-.273 2.293-.735 3.318h-1.846l-.368.735h-2.956l-.73 1.104h-.736l-2.214 2.582h-2.214l-.741 1.109-1.104.368v.368h-1.104l-.368.741-1.473.363-.373.736h-1.104l-.368.736h-.736l-.368.735-2.214.736-.373.742h-5.159l-.367-.742h-1.11l-.368-.736-1.472-.367-.731-1.104h-.741l-.368-.736h-.741l-.368-.736-1.473-.736c-.026-.951-.053-1.288-.368-1.846h-.373l-.362-2.95-.742-.368c-.625-1.419.573-3.023-.741-3.686h-3.312c-.494.752-.604.688-1.846.736-.752-1.152-.5-.169-1.473-.736v-.368c-.668-.489-.71-.604-1.846-.741v.373h-1.099l-1.478 1.841-1.104.373v.736h-.373c-.668 1.078.31.284-.736 1.104v.367h-1.478v.368l-1.473 1.104c-.295.437-.289 1.425-.741 1.846l-2.204.736-.368 2.582h-.367l-.374.736h-1.104c-.504.362-.016.92-.373 1.472h-.368l-.368.736h-.736l-.367.742c-.778.521-1.72.746-2.577 1.104.247 1.226.642 1.42.731 2.956-1.162.688-1.12 1.119-1.841 2.208l-.736.368v1.109l-1.109.736v1.104l-.736.368v.741l-.736.368v.736h-.368v1.109h-.373v.736h-.368v2.576h-.368l-.368 1.473h-.368c-.437 1.215-.026 4.086.368 4.796l.736.368v3.317l-1.104.741.368 2.209h-.368c-.578 2.183-3.154 2.529-4.422 4.055-2.348-.017-4.496-.873-5.9-1.841l-.736-1.109h-.739l-1.104-1.468h-.368c-.371-.436-.021-.94-.371-1.478l-.739-.368v-.373h-3.318v-.368h-.368v-1.104l-1.84-1.478v-.735l-.739-.368c-.326-.553.161-1.179-.368-1.473h-2.582v.368h-1.475v-.368h-.369v-1.478h-.371l-2.579-2.95h-1.107l-1.475-1.846h-5.161l-.736-1.099h-2.211l-2.214-2.582c-1.528-.721-2.619.915-4.057 0l-.736-1.109h-.366v-1.473l-1.109-.736-.366-1.109-1.846-.368v-.368l-1.107-.368-.736-1.104h-1.107l-.739-1.109-1.475-.362-.368-.741h-.736v-.368h-1.104l-.368-.742-2.214-1.846c-1.043-1.109-.103-1.688-.736-2.944l-2.585-1.841v-1.478h-.368l-.368-1.478h-.368l-.368-.736h-.739l-.736-1.104h-4.425v-.367h-.368v-1.473h-.371v-.741h-.368v-1.104l-2.58-1.846c-.533-.826.087-1.894-.371-2.947l-.739-.368v-1.478h-.365l.365-4.055c-1.149-.53-1.922-1.186-2.579-2.211h-.365c-.255-.715.917-1.524.365-2.579h-.365v-.371h-1.107c-1.085 2.327-3.079 3.826-4.795 5.529l-1.102 1.476h-.739l-1.843 2.581h-.736l-2.213 2.58-1.107.373v.733l-1.104.736v1.109h-.368l-1.109 1.473c-2.897-.537-1.549.142-3.686.741v.736H63.1l-2.211 2.576H57.57c-.792 1.126-.5.163-1.475.736l-.736 1.109h-1.107l-.371.736c-.938.432-1.822-.089-2.579.368l-.371.741h-.736l-.368.736h-.739l-1.104 1.473-2.211.368-.371.736-5.529.368-.368.741h-5.164v.362h-1.475l-.366.742-2.953.367-.736-1.109h-.736l-1.107-1.472h-.738l-.368-.736h-1.104v-.368h-.736v-.368h-.739l-2.214-2.582-.736-.368-.368-1.473-1.846-1.478v-.736l-.736-.367-.371-1.473-1.84-1.478v-3.684h-.368v-.741h-.371v-.736l-.736-.368v-4.425s-.462.016-.371-.739c0 0 .562-.368.371-1.104-.152-.584-1.44-2.035-1.107-2.95l.736-.371.371-1.47.736-.37v-8.479l1.109-.739v-.738l.736-.368v-2.579l1.104-.739v-.738l2.582-2.212v-1.104l.736-.371v-.733h.368v-1.107l.736-.368v-1.109l.739-.368.371-1.84.739-.371v-1.843c.113-.253.465-.032.736-1.104l1.84-.371v.371c.581.3.891.297 1.846.365.26-.687.365-1.44.368-2.579-1.217-.694-1.173-1.722-1.104-3.688.976-.684.833-1.617 1.473-2.577l.736-.37v-.736l.739-.371 1.107-1.475.739-.371v-1.104l4.422-4.054v-.736l.736-.371v-1.104h.368v-1.107l.739-.368V93.41l.739-.368v-.739l.736-.368c.807-.856 1.859-1.675 2.211-2.949-.854-.324-1.622-.374-2.947-.368-1.367 1.893-4.859-.195-7.004.738l-.371.736h-.736v.368h-2.95v.371h-.736v.365h-1.11v.368h-3.315l-.371.738h-.739v.368l-1.473.371v.368c-1.02.368-6.602-.016-7.007-.368l-1.102-.371v-.368h-.739v-.368c-.547-.499-.507-.181-.739-1.104-.773-.752-.765-2.119-.739-3.689 1.267-.771.741-1.102 1.478-2.211l1.104-.739v-1.106l.736-.368v-.736l2.216-1.846.368-.736c.615-.423.836-.002 1.473-.736 1.015.587.665.913 2.214 1.104.47-.852 1.296-1.139 1.84-1.843l.368-1.104h8.481c1.062-1.462 1.62-.465 3.318-1.106v-.368h.736v-.371h2.214v-.365l1.475-.371v-.368h.736l.371-.738h1.475l.365-.736h1.475v-.368c.231-.029 1.354.673 2.216.368v-.368l1.47-.371v-.367h4.057v-.368h.736l.371-.736h1.107l.368-.739h.736l.368-.736h1.107l.739-1.106h1.107l1.473-1.843h.371l.365-1.473 1.478-1.109.368-1.104h.736l.368-.739h.739l.736-1.104h.739l.739-.739v-.738l1.104-.734v-.738h.368v-.736h.368V55.44l1.107-.739v-1.102h.371l.368-1.106.733-.371.371-1.475 1.843-1.473v-.736l1.107-.738v-.739l.736-.736h.739l.739-1.106h1.104v.37h1.106l.366.736h.739l1.107 1.476h.368v.738l.739.368v1.107l1.104.733v2.214l.739.37.368 4.423h-.368v1.843l-.739.368v1.475h-.365c-1.819 2.114-5.89 3.006-6.268 6.637.763.402.652.594 1.843.738.142-.241.171-.249.368-.37h.366l.368-.736h1.107l.371-.736 4.793-.371h3.318v-.365h1.846v-.37h3.318l.368-.736h1.843v-.381h1.104l.368-.736h2.211l.371-.738h4.422v-.368h.742l.368-.736h6.265v-.368h.739v-.371l4.422-.368.368-.735h3.689v-.371h.736v-.368c2.745-.949 4.06 1.77 7.007.739v-.371h.736v-.368h2.582v-.371h.736l.368-.733h4.057l.368-.738h1.107l.736-1.104 4.425.368v-.368c.712-.107.736.368.736.368l5.532-.368v-.371h.736v-.368h3.688l.736-1.109h5.164c.799.287 1.667 1.686 3.312 1.109v-.37h.741l.368-.739h1.846l.368-.733h1.104v-.368h1.841v-.368h.735v-.37h3.323l.368-.739c.763-.305 2.52.194 2.95.371v.368h5.9l.368.738h1.846c.016.008-.048.224.73.368l2.214 3.318 1.841 1.473v1.106l1.109.739v1.475h.368v1.104h.368v4.425l-.736.368-.368 1.109h-1.104v.365h-.741l-.368.739h-5.526c-1.005-.889-3.255.05-4.801-.368-2.356-.646-6.247-.371-9.208-.371h-3.691c-.983.297-1.777.718-3.318.739h-7.74v.368h-.738l-.368.736H149l-.368.738h-3.688l-.368.739H133.885l-.368-.739h-2.582l-.371.739h-.733v.365h-1.478l-.368.738h-1.478l-.733 1.104h-8.482l-.368.739h-1.841c-.329.142-.336 1.178-1.846.736v-.368h-.736v-.368h-3.688l-.368.736h-.736v.37h-1.846l-.368.739H98.12v.365l-1.47.371v.367h-2.216l-.368.736H91.49l-.371.736h-.739v.371H87.8l-.368.738h-6.265l-.739 1.107h-1.846v.365h-.739v.368H70.47l-.736 1.106H68.63l-.368.739h-2.953v.368h-.365V86.4l-1.478 1.104v.736l-1.475.739v1.475l-.736.371v1.104l-2.95 1.476v1.106l-.736.368v.736H57.2v.738l-.734.736v.739l-.739.368-.368 1.473-.739.37v.736l-.739.739h-.739l-.733 1.106h-1.107v.368h-.371v.365h-.366v.739h-.371v1.106l-.739.371v.736h-.368v.735l-4.42 4.058v1.843l-.739.368v.738h-.371v1.107l-.736.365v1.478l-.739.368v.736h-.368l-.371 1.107-1.104.735-.368 2.214-2.582 2.212v.735l-.736.368-.368 1.107-1.106.37v.734h-.368v.738h-.371v2.214l-1.104.368-.736 1.104h-.739v.368l-1.846 1.478v4.793l-1.104.736v.736l-.736.37v1.476l-.736.37-.371 1.841-1.107.738-.368 1.104h-.368v4.057l-.736.368.368 3.687h.368v1.475h.368v.368h1.846l.368.736h.736v.368h7.004l.371-.736 1.84-.368.371-.733h1.475l.368-.741h.739v-.368h3.686v-.368l1.475-.368.365-.741 1.478-.366.368-.735h1.104l.739-1.107h1.104l.371-.738 1.107-.368v-.368l2.211-.371v-.368h.739l.368-.736 2.208-.735.371-.739h1.475l.371-.738h.736l1.104-1.476.739-.365.368-1.104h1.107l.739-1.109h3.318l2.208-2.947 1.107-.739v-.37h.739l.739-1.107h.736l.368-.733h.739l1.843-2.214c.082-.05 1.283-.289 1.472-.368.082-2.146 1.073-2.565 1.475-4.425-.926-.521-1.057-.755-1.107-2.211.694-.441.357-.305.739-1.107h.368l-.368-2.579h.368v-1.475h-.368c-.597-.938-.594-.679-.739-2.214.854-.741.247-.886.739-1.841h.368l.371-1.109c-1.386-.881-1.885-3.118-1.846-5.526l2.953-1.846v-.739l.733-.368v-.733l.739-.37v-1.107l.739-.368v-.734l1.106-.739v-.733l.736-.736h.736l1.104-1.478h.371v-.738l.736-.368v-.738h.371v-.736h.368v-.368h.371v-.371h1.472l.368-.736h1.107v-.367h1.475l1.106-1.476c.402-.131 3.192 1.396 4.791.736l.371-.736h4.425l.739-1.106h4.791l.368-.739h1.475l.368.739h2.211l.741 1.106c1.602.736 4.365-.544 5.159-.738.762 1.104 1.028.404 1.843 1.106l1.843 2.211h1.109l.736 1.107 1.104.368v.37h1.843c1.089.353 1.933.955 3.318 1.104l1.846-2.95h1.472l.368-.736h.739v-.367l1.107-.371v-.368h.368v-1.104l1.104-.738v-.74l1.846-1.475v-1.473l.739-.368v-1.846l2.208-1.843v-.735l1.475-1.106v-.368h.742l.365-.739h.736v-.365h.739l.371-.739H149l.368-.738h.368v-.741z"/><path fill="#FFF" d="M165.182 153.649v2.214c-10.796 5.941-7.709 23.39-12.904 33.554-.247.116-.492.242-.739.363-8.263.016-13.851-4.349-18.801-7.746-2.947-.609-5.9-1.22-8.85-1.84-.981-1.473-1.967-2.95-2.95-4.423-2.038-1.235-4.396-.3-5.529-2.214v-2.208c-1.719-.495-3.439-.983-5.161-1.479-.736-1.719-1.475-3.438-2.211-5.158-4.046-5.795-9.297-12.047-12.904-18.436.247-.983.492-1.967.736-2.95-.573-5.147-9.223-13.414-6.268-21.013 7.262-18.667 22.884-12.909 37.237-6.271l8.111 7.375h4.422c2.558-3.034 1.314-3.744 2.953-6.269 1.596-1.106 3.194-2.214 4.793-3.315.615-2.214 1.228-4.428 1.843-6.639 1.612-3.134 5.264-6.107 6.271-9.951-.373-.618-.741-1.23-1.109-1.846.862-.86 1.723-1.723 2.579-2.582 20.072-2.517 31.714 11.692 27.654 33.92.121 1.475.242 2.949.368 4.425-1.352 3.749-5.379 6.213-7.372 9.215-2.541 3.822-5.849 12.467-12.169 13.274z"/><path fill="#ED1C24" d="m137.575 180.788-.371 1.104c.507-.788.673-.2.371-1.104zm13.272-1.846-1.107.736v1.478l.739.368h.368v-2.582zm-2.95-2.576-.368 1.472c.563-.841.673-.452.368-1.472zm-7.004-16.595-1.846 2.214 3.321-1.841v-.373h-1.475zm7.743-5.53-.368.736 1.473-.736h-1.105zm-16.961-4.425c-1.083 4.624-2.096 9.086-7.743 9.218.368 2.003.41 3.155.371 4.422l4.422-2.208 4.425-11.062v-.37h-1.475zm22.122-12.166-1.106 1.476v.368c.726-.211.983-.281 1.188-.429.171-.124.305-.308.654-.676l-.736-.739zm11.427-11.06h4.054v-2.211c.615-.39 8.356-5.688 8.482-5.897l-.736-.739c-4.28 1.499-6.516 2.774-8.113 7.004h-4.791c-1.751 2.619-6.184 7.263-5.158 11.059l1.104-.733c1.046-2.472 3.081-2.071 4.422-4.057.783-.985.815-2.476.736-4.426zm-9.586-25.438-1.841 1.843h1.473l.368-1.843zm6.267 57.514-.368 2.214c-2.907.778-5.568 7.987-6.268 11.795h-3.315l.368.735c1.633.216 1.722.284 2.582 1.11.018 5.595-1.305 11.315-3.321 15.48h-.736c-6.915 1.473-18.394-5.842-23.227-8.108-.14-6.652 2.33-7.099 4.054-11.063l-9.215 5.537-1.475-.736c1.02-3.76 1.175-5.647 1.104-10.328h-1.104c-1.27 2.556-3.823 5.553-6.271 7.005-1.672-.505-4.07-1.058-5.159-2.209-3.297-4.522-8.516-9.934-5.9-15.856l-4.793-1.844c-4.076-3.825-11.035-21.057-7.004-26.176l-.368-.739h-2.95c.373-4.354 3.612-8.716 6.636-10.69 2.167-1.414 4.827-4.672 7.743-5.531 8.258-2.43 27.233 10.186 31.703 15.118l4.425-1.476c.495-.276 10.257-13.785 11.064-15.118l-1.475.368c.389-1.344.297-1.083 1.104-1.84l.739 1.104c-.176-5.101 1.359-6.746 4.054-8.847-1.496-2.664-.586-3.068 1.104-5.161l4.796-1.107 2.208.739c-.521 1.698-2.45 4.035-3.681 5.161l.368.738 5.158-.37c-.084-3.026.395-3.937 1.478-5.529h2.945l8.477 5.529c3.097 2.523 2.787 6.738 6.641 8.847-.01 1.728-1.178 4.044-1.104 4.423.488 2.542 3.617 8.245 2.208 12.906-.547 1.828-2.082 1.044-2.944 2.214l-1.846 8.479c-1.867 4.033-7.678 6.789-10.322 10.69-1.431 2.101-6.236 3.134-7.378 5.164l.368 3.315-4.049 3.688.736.736 2.21-.367z"/></svg>