<?xml version="1.0" standalone="no"?>
<!DOCTYPE svg PUBLIC "-//W3C//DTD SVG 20010904//EN"
 "http://www.w3.org/TR/2001/REC-SVG-20010904/DTD/svg10.dtd">
<svg version="1.0" xmlns="http://www.w3.org/2000/svg"
 width="400.000000pt" height="400.000000pt" viewBox="0 0 400.000000 400.000000"
 preserveAspectRatio="xMidYMid meet">

<g transform="translate(0.000000,400.000000) scale(0.100000,-0.100000)"
fill="#000000" stroke="none">
<path d="M0 2000 l0 -2000 2000 0 2000 0 0 2000 0 2000 -2000 0 -2000 0 0
-2000z m2110 1360 c348 -29 678 -191 901 -440 97 -108 103 -100 -68 -100
l-148 0 -75 79 c-112 117 -128 117 -245 -5 l-70 -74 -749 0 c-711 0 -748 1
-735 18 185 237 444 407 736 483 100 25 154 33 323 47 8 1 67 -3 130 -8z m280
-822 l78 -83 413 -5 413 -5 18 -58 c19 -62 48 -217 48 -254 l0 -23 -517 0
c-588 0 -533 -8 -617 90 -64 73 -74 80 -113 80 -29 0 -44 -11 -112 -82 l-79
-83 -642 -3 -643 -2 7 58 c7 65 41 213 57 255 l11 27 669 0 c433 0 678 4 696
10 15 6 60 44 98 85 98 103 110 103 215 -7z m-507 -685 c23 -26 54 -60 69 -75
l26 -28 681 0 c645 0 681 -1 681 -18 0 -27 -38 -157 -71 -243 l-30 -79 -716 0
-715 0 -72 76 c-39 42 -80 80 -91 84 -34 13 -67 -8 -140 -85 l-70 -75 -335 0
-335 0 -26 63 c-29 67 -64 179 -74 240 l-7 37 463 0 c530 0 488 -7 575 95 27
31 58 61 69 65 34 13 75 -7 118 -57z m-519 -698 l82 -85 772 0 c463 0 772 -4
772 -9 0 -17 -144 -142 -225 -195 -155 -103 -311 -168 -498 -208 -145 -30
-389 -30 -534 0 -192 41 -340 103 -499 211 -87 59 -224 175 -224 191 0 4 15
10 33 14 22 4 52 28 98 75 70 73 93 90 123 91 11 0 53 -36 100 -85z"/>
</g>
</svg>
