<svg id="Layer_1" data-name="Layer 1" xmlns="http://www.w3.org/2000/svg" viewBox="0 0 500 500"><defs><style>.cls-1{fill:#2d374b;}.cls-2{fill:#28a0f0;}.cls-3{fill:#fff;}.cls-4{fill:#96bedc;}</style></defs><g id="Logos_and_symbols" data-name="Logos and symbols"><g id="Symbol_-_Original" data-name="Symbol - Original"><path class="cls-1" d="M287.19,237.29l23.67-40.15,63.78,99.34,0,19.07-.21-131.2a9.88,9.88,0,0,0-4.57-7.87l-114.84-66a10.1,10.1,0,0,0-8.77,0,11.48,11.48,0,0,0-1,.59l-.4.25-111.47,64.6-.43.19a10.16,10.16,0,0,0-1.64,1,9.82,9.82,0,0,0-4,6.27,11.14,11.14,0,0,0-.15,1.16l.18,106.92,59.41-92.09c7.48-12.21,23.78-16.14,38.91-15.93l17.76.47L138.82,351.65l12.33,7.1L257,184l46.8-.17L198.23,363l44,25.31,5.26,3a10.07,10.07,0,0,0,7.09.14L371,324l-22.26,12.9Zm9,130-44.45-69.76,27.13-46,58.38,92Z"/><polygon class="cls-2" points="251.77 297.57 296.22 367.33 337.28 343.54 278.9 251.53 251.77 297.57"/><path class="cls-2" d="M374.67,315.55l0-19.07-63.78-99.34-23.67,40.15,61.58,99.59L371,324a9.87,9.87,0,0,0,3.64-7.19Z"/><path class="cls-3" d="M107.38,333.53l31.44,18.12L243.44,183.86l-17.75-.47c-15.13-.21-31.43,3.72-38.91,15.93l-59.41,92.09-20,30.71v11.41Z"/><polygon class="cls-3" points="303.83 183.86 257.03 184.03 151.15 358.75 188.16 380.06 198.22 362.99 303.83 183.86"/><path class="cls-4" d="M394.39,183.62a29.82,29.82,0,0,0-14-24L264.06,92.75a30.23,30.23,0,0,0-26.69,0c-1,.49-113.14,65.54-113.14,65.54a29.06,29.06,0,0,0-4.46,2.64,29.56,29.56,0,0,0-12.39,22.63V322.12l20-30.71-.18-106.92a11,11,0,0,1,.15-1.15,9.82,9.82,0,0,1,4-6.28c.52-.37,114.61-66.41,115-66.59a10.1,10.1,0,0,1,8.77,0l114.84,66a9.88,9.88,0,0,1,4.57,7.87V316.79A9.69,9.69,0,0,1,371,324l-22.26,12.9-11.49,6.66-41.06,23.79-41.64,24.13a10.07,10.07,0,0,1-7.09-.14L198.22,363l-10.06,17.06,44.27,25.5,3.84,2.17c1.66.93,2.79,1.55,3.19,1.74a28.73,28.73,0,0,0,11.75,2.42,29.64,29.64,0,0,0,10.84-2l121-70a29.58,29.58,0,0,0,11.39-22.28Z"/></g></g></svg>