<svg viewBox="0 0 90 90" xmlns="http://www.w3.org/2000/svg"><defs><linearGradient x1="1.778%" y1="50.004%" x2="99.227%" y2="50.004%" id="a"><stop stop-color="#003AFF" offset="0%"/><stop stop-color="#0067FF" offset="24.71%"/><stop stop-color="#02D6FF" offset="80.35%"/><stop stop-color="#02FFFF" offset="100%"/></linearGradient></defs><g fill="none" fill-rule="evenodd"><path fill="#FFF" d="M0 0h90v90H0z"/><path d="M52.19 67.329c-3.525 2.52-5.632 5.65-4.66 7.031.972 1.383 4.62.45 8.143-2.074 3.526-2.516 5.632-5.647 4.66-7.029-.284-.45-.852-.61-1.622-.61-.032-.002-.066-.002-.099-.002-1.62-.002-4.04.972-6.422 2.684m-19.448-5.366c-6.848 2.844-11.587 7.071-10.615 9.47.972 2.4 7.333 2.032 14.18-.771 6.847-2.844 11.587-7.07 10.615-9.47-.445-1.056-1.945-1.585-4.092-1.585h-.191c-2.657-.001-6.219.81-9.897 2.356M64.1 59.118c-1.216 2.32-1.581 4.512-.851 4.877.73.41 2.309-1.18 3.524-3.492 1.216-2.32 1.58-4.515.85-4.88-.08-.04-.162-.04-.242-.04l-.032-.002c-.814-.001-2.17 1.49-3.25 3.537m-9.886-6.422c-2.348 1.342-3.565 3.617-2.754 5.082.851 1.463 3.404 1.504 5.754.162 2.35-1.34 3.566-3.617 2.755-5.08-.446-.774-1.338-1.138-2.431-1.138-1.013-.002-2.188.324-3.324.974m8.67-3.089c-.688 1.18-.648 2.478.122 2.928.73.447 1.904-.203 2.553-1.381.689-1.182.648-2.481-.12-2.928a1.122 1.122 0 0 0-.529-.125c-.647.001-1.456.611-2.025 1.506m-8.711-5.08c0 1.421 1.295 2.561 2.876 2.561 1.58 0 2.918-1.138 2.918-2.562 0-1.423-1.296-2.56-2.918-2.56-1.58 0-2.876 1.179-2.876 2.56m-19.324 0c0 3.171 3.564 5.732 7.98 5.732 4.377.04 7.941-2.52 7.941-5.732 0-3.17-3.564-5.731-7.982-5.731-4.375 0-7.94 2.56-7.94 5.731m28.24-8.088c-.73.447-.77 1.747-.123 2.925.689 1.18 1.823 1.79 2.554 1.383.73-.449.77-1.748.12-2.927-.526-.934-1.336-1.503-2.024-1.503a.544.544 0 0 0-.11-.01c-.154 0-.285.065-.417.132m-11.507-5.244c-.851 1.463.405 3.74 2.755 5.082 2.35 1.34 4.902 1.3 5.753-.163.852-1.462-.405-3.738-2.755-5.08-1.135-.65-2.309-.976-3.322-.976-1.095-.001-2.026.366-2.431 1.137m11.668-6.22c-.73.407-.365 2.561.85 4.878 1.216 2.317 2.797 3.86 3.526 3.496.729-.408.365-2.562-.851-4.877-1.093-2.074-2.471-3.538-3.28-3.538-.083.001-.164.001-.245.042m-41.123-7.438c-.973 2.398 3.767 6.624 10.615 9.471 6.848 2.845 13.167 3.17 14.18.771.974-2.398-3.768-6.624-10.614-9.47-3.81-1.544-7.416-2.357-10.089-2.357-2.148 0-3.647.527-4.092 1.585m25.362-2.927c-.973 1.383 1.135 4.513 4.66 7.033 3.524 2.52 7.171 3.455 8.143 2.072.973-1.382-1.135-4.511-4.66-7.032C53.202 14.976 50.732 14 49.11 14c-.769.001-1.336.205-1.62.61" fill="url(#a)" fill-rule="nonzero"/></g></svg>