<svg id="Layer_1" data-name="Layer 1" xmlns="http://www.w3.org/2000/svg" viewBox="0 0 500 500"><defs><style>.cls-1{fill:#5326ec;}.cls-2{fill:#fcfcff;}</style></defs><circle class="cls-1" cx="250" cy="250" r="249.97"/><path class="cls-2" d="M455.1,255.17c-.42,5.71-.59,11.46-1.31,17.12-7.69,60.16-36.08,108.31-85.72,143.49C331,442.07,289.2,454.27,243.75,452.59c-52.56-1.94-97.8-21.53-135.66-57.84a2.12,2.12,0,0,1,0-2Q179.49,322,251,251.48a6.38,6.38,0,0,1,4.11-1.65q100,.13,200,.45Z"/><path class="cls-2" d="M256.84,46.54c5.61.44,11.22.7,16.81,1.31A202.86,202.86,0,0,1,363.9,80.34c.18.14.36.29.53.45L347,98c-3.81,3.76-7.59,7.54-11.44,11.24a1.73,1.73,0,0,1-1.65.14,163.47,163.47,0,0,0-89.45-22.14c-71.52,2.68-134.07,52.93-151.5,122-10.78,42.8-5,83.51,16.66,122a1.48,1.48,0,0,1,0,1.41q-14.28,14.24-28.67,28.39c-.1.09-.21.17-.43.34-.89-1.39-1.79-2.73-2.64-4.1-23.42-38-33.66-79.24-30.11-123.73,7.39-92.48,76.86-168.07,169-183.92,9.31-1.6,18.83-2,28.25-2.94l1.92-.2Z"/><path class="cls-2" d="M359.71,169.37a36.63,36.63,0,0,1,29.73-35.69,36.65,36.65,0,0,1,40.94,22A36.48,36.48,0,0,1,416.69,200a36.66,36.66,0,0,1-54.24-16.55A36.4,36.4,0,0,1,359.71,169.37Z"/></svg>