<svg xmlns="http://www.w3.org/2000/svg" xmlns:xlink="http://www.w3.org/1999/xlink" version="1.1" id="Layer_1" x="0px" y="0px" width="52px" height="52px" viewBox="0 0 52 52" style="--arc-palette-foregroundTertiary:#3139FBFF; --arc-palette-cutoutColor:#212AFBFF; --arc-palette-title:#DCDEFDF4; --arc-palette-backgroundExtra:#050727F4; --arc-palette-hover:#5D64FB7A; --arc-background-gradient-color1:#17011EFF; --arc-palette-minContrastColor:#212AFBFF; --arc-palette-background:#0A0D4EF6; --arc-palette-focus:#4D54FBCE; --arc-palette-subtitle:#797A82F9; --arc-palette-maxContrastColor:#ECEDFEFF; --arc-background-gradient-color0:#01021EFF; --arc-palette-foregroundSecondary:#8489FBFF; --arc-palette-foregroundPrimary:#ECEDFEFF;" xml:space="preserve"><script xmlns="" id="argent-x-extension" data-extension-id="dlcobpjiigpikoobohmabehhmhfoodbb"/>
<style type="text/css">
	.st0{fill:#FFFFFF;}
	.st1{fill:url(#SVGID_1_);}
	.st2{fill:url(#SVGID_2_);}
	.st3{fill:url(#SVGID_3_);}
</style>
<linearGradient id="SVGID_1_" gradientUnits="userSpaceOnUse" x1="1500.9126" y1="-2562.6375" x2="1478.3119" y2="-2562.6375" gradientTransform="matrix(0.7071 0.7071 -0.7071 0.7071 -2842.0383 803.3896)">
	<stop offset="0" style="stop-color:#4362AD"/>
	<stop offset="5.000000e-02" style="stop-color:#4169B2"/>
	<stop offset="0.37" style="stop-color:#269ED5"/>
	<stop offset="0.65" style="stop-color:#30C1D8"/>
	<stop offset="0.87" style="stop-color:#54C5CE"/>
	<stop offset="1" style="stop-color:#5DC7CD"/>
</linearGradient>
<path class="st1" d="M36.6,47.3c-5.9,5.9-15,6.3-20.3,0.9c-2.4-2.4-3.6-5.5-3.8-8.8c4.1,0.2,8.3-1.4,11.6-4.7  c-1.7,1.7-1.8,4.3-0.3,5.9c1.6,1.6,4.2,1.4,5.9-0.3L36.6,47.3z"/>
<linearGradient id="SVGID_2_" gradientUnits="userSpaceOnUse" x1="1455.7113" y1="-2592.7764" x2="1478.3119" y2="-2592.7764" gradientTransform="matrix(0.7071 0.7071 -0.7071 0.7071 -2842.0383 803.3896)">
	<stop offset="0" style="stop-color:#4362AD"/>
	<stop offset="5.000000e-02" style="stop-color:#4169B2"/>
	<stop offset="0.37" style="stop-color:#269ED5"/>
	<stop offset="0.65" style="stop-color:#30C1D8"/>
	<stop offset="0.87" style="stop-color:#54C5CE"/>
	<stop offset="1" style="stop-color:#5DC7CD"/>
</linearGradient>
<path class="st2" d="M39.5,12.5c-4.1-0.2-8.3,1.4-11.6,4.7c1.7-1.7,1.8-4.3,0.3-5.9c-1.6-1.6-4.2-1.4-5.9,0.3l-6.9-6.9  c5.9-5.9,15-6.3,20.3-0.9C38.1,6.2,39.3,9.3,39.5,12.5z"/>
<linearGradient id="SVGID_3_" gradientUnits="userSpaceOnUse" x1="1455.7113" y1="-2577.7068" x2="1500.9126" y2="-2577.7068" gradientTransform="matrix(0.7071 0.7071 -0.7071 0.7071 -2842.0383 803.3896)">
	<stop offset="0" style="stop-color:#DE156C"/>
	<stop offset="0.18" style="stop-color:#D8186C"/>
	<stop offset="0.41" style="stop-color:#C81C6C"/>
	<stop offset="0.66" style="stop-color:#AD206B"/>
	<stop offset="0.94" style="stop-color:#86226A"/>
	<stop offset="1" style="stop-color:#7E2269"/>
</linearGradient>
<path class="st3" d="M48.2,16.3c-2.4-2.4-5.5-3.6-8.8-3.8c-4.1-0.2-8.3,1.4-11.6,4.7L17.2,27.9c-1.7,1.7-4.3,1.8-5.9,0.3  c-1.6-1.6-1.4-4.2,0.3-5.9l10.7-10.7l-6.9-6.9L4.7,15.4c-5.9,5.9-6.3,15-0.9,20.3c2.4,2.4,5.5,3.6,8.8,3.8c4.1,0.2,8.3-1.4,11.6-4.7  l10.7-10.7c1.7-1.7,4.3-1.8,5.9-0.3c1.6,1.6,1.4,4.2-0.3,5.9L29.7,40.4l6.9,6.9l10.7-10.7C53.2,30.8,53.6,21.7,48.2,16.3z"/>
</svg>